# xmcd
#
# Track frame offsets: 
#        150
#        25993
#        43553
#        60531
#        81372
#        102558
#        117761
#        136030
#        162643
#        182397
#        202713
#        223313
#
# Disc length: 3230 seconds
#
# Revision: 0
# Processed by: cddbd v1.5.2PL0 Copyright (c) Steve Scherf et al.
# Submitted via: ExactAudioCopyFreeDBPlugin 1.0
#
DISCID=a20c9c0c
DTITLE=Eric Clapton - Old Sock
DYEAR=2013
DGENRE=Blues
TTITLE0=Further On Down The Road
TTITLE1=Angel
TTITLE2=The Folks Who Live On The Hill
TTITLE3=Gotta Get Over
TTITLE4=Till You Well Runs dry
TTITLE5=All Of Me
TTITLE6=Born To Lose
TTITLE7=Still Got The Blues
TTITLE8=Goodnight Irene
TTITLE9=Your One And Only Man
TTITLE10=Every Little Thing
TTITLE11=Our Love Is Here To Stay
EXTD=
EXTT0=
EXTT1=
EXTT2=
EXTT3=
EXTT4=
EXTT5=
EXTT6=
EXTT7=
EXTT8=
EXTT9=
EXTT10=
EXTT11=
PLAYORDER=
